<?xml version="1.0" encoding="utf-8"?>
<svg version="1.1" id="Слой_1" xmlns="http://www.w3.org/2000/svg" xmlns:xlink="http://www.w3.org/1999/xlink" x="0px" y="0px"
	 viewBox="0 0 100 38" style="enable-background:new 0 0 100 38;" xml:space="preserve">
<g>
	<path d="M0.8,28.4h7.9v7.9H0.8V28.4z"/>
	<path fill="#e4002b" d="M21.8,22.2L10.4,1.9H20l3.9,8.3c1.1,2.4,2.1,4.9,2.1,4.9H26c0,0,1-2.6,2.1-4.9l3.8-8.3h9.6
		L30.2,22.2v14.1h-8.4V22.2z"/>
	<path fill="#e4002b" d="M47,1.9h21.5v7.2H55.4v6.2h10.5v7.2H55.4V29h13.8v7.2H47V1.9z"/>
	<path fill="#e4002b" d="M78.8,25.5c1.9,1.7,5.2,3.6,8.3,3.6c2.4,0,3.6-1.1,3.6-2.4c0-4.8-15.2-4.1-15.2-14.8
		c0-6.3,5.2-10.5,12.4-10.5c3.8,0,7.8,1.2,10.8,3.9l-3.6,6.9c-1.9-1.7-4.9-3-7.6-3c-2.5,0-3.6,1.1-3.6,2.4c0,4.9,15.2,3.7,15.2,14.6
		c0,5.8-4.3,10.7-12.2,10.7c-4.5,0-9.2-1.6-12.4-4.9L78.8,25.5z"/>
</g>
</svg>
